<?xml version="1.0" standalone="no"?>
<!DOCTYPE svg PUBLIC "-//W3C//DTD SVG 1.1//EN" "http://www.w3.org/Graphics/SVG/1.1/DTD/svg11.dtd" >
<svg xmlns="http://www.w3.org/2000/svg">
<metadata></metadata>
<defs>
<font id="bemboextrabold" horiz-adv-x="1087" >
<font-face units-per-em="2048" ascent="1638" descent="-410" />
<missing-glyph horiz-adv-x="681" />
<glyph horiz-adv-x="2048" />
<glyph horiz-adv-x="2048" />
<glyph unicode="&#xd;" horiz-adv-x="681" />
<glyph unicode=" "  horiz-adv-x="681" />
<glyph unicode="&#x09;" horiz-adv-x="681" />
<glyph unicode="&#xa0;" horiz-adv-x="681" />
<glyph unicode="!" horiz-adv-x="702" d="M156 147q0 76 56 125.5t140 49.5q86 0 141.5 -48t55.5 -124t-55.5 -125.5t-141.5 -49.5t-141 48.5t-55 123.5zM164 1262q0 37 47 36h254q51 0 63.5 -8t12.5 -33q0 -8 -17 -108l-121 -746h-102l-123 746q-14 86 -14 113z" />
<glyph unicode="&#x22;" horiz-adv-x="1155" d="M188 1153q0 66 42 110t106 44q63 0 105 -44t42 -110q0 -53 -20 -129l-103 -383h-49l-102 383q-20 76 -21 129zM672 1153q0 66 42 110t105 44t105.5 -44t42.5 -110q0 -53 -21 -129l-102 -383h-49l-103 383q-20 76 -20 129z" />
<glyph unicode="#" horiz-adv-x="1368" d="M78 330v188h209l63 301h-272v189h311l82 385h188l-79 -385h354l82 385h188l-80 -385h166v-189h-207l-63 -301h270v-188h-311l-80 -381h-188l80 381h-357l-80 -381h-188l80 381h-168zM475 518h356l64 301h-356z" />
<glyph unicode="$" horiz-adv-x="1052" d="M76 272q0 59 40 100.5t97 41.5q84 0 117 -78q23 -78 45 -154q30 -92 102 -112v444q-207 121 -281.5 209t-74.5 207q0 152 94 242t262 102v92h88v-92q160 -6 266.5 -78t106.5 -172q0 -59 -37 -99t-94 -40q-76 0 -109 61q-20 63 -43 127q-29 78 -90 105v-355 q219 -100 315.5 -207.5t96.5 -242.5q0 -162 -109.5 -268.5t-302.5 -127.5v-182h-88v182q-162 4 -281.5 91.5t-119.5 203.5zM354 1047q0 -90 123 -170v311q-123 -27 -123 -141zM565 63q70 14 112 64.5t42 122.5q0 125 -154 215v-402z" />
<glyph unicode="%" horiz-adv-x="1587" d="M51 958q0 164 73 256.5t200 92.5t199.5 -93.5t72.5 -255.5t-72.5 -255t-199.5 -93t-200 92t-73 256zM260 829q0 -160 64 -159q37 0 50 30.5t13 128.5v236q0 109 -11 145.5t-52 36.5q-35 0 -49.5 -36.5t-14.5 -145.5v-236zM283 -76l841 1383h174l-839 -1383h-176zM989 295 q0 164 73 256t200 92t199.5 -93t72.5 -255t-72.5 -255t-199.5 -93t-200 92t-73 256zM1198 166q0 -160 64 -160q37 0 50 31t13 129v235q0 109 -11 146t-52 37q-35 0 -49.5 -37t-14.5 -146v-235z" />
<glyph unicode="&#x26;" horiz-adv-x="1513" d="M82 307q0 242 330 365q-141 135 -142 258q0 121 97.5 191.5t263.5 70.5q156 0 247 -59.5t91 -161.5q0 -129 -199 -226q150 -117 258 -278q139 203 139 285q0 41 -116 39v90h422v-90q-119 0 -160 -41q-14 -14 -86 -150q-80 -145 -140 -221l101 -166q61 -100 131 -100 q35 0 104 47l41 -82q-135 -111 -305 -111q-176 0 -285 168q-174 -168 -411 -168q-197 0 -301 121q-80 94 -80 219zM385 397q0 -109 69.5 -184.5t168.5 -75.5q112 0 196 88q-133 229 -327 377q-106 -66 -107 -205zM532 993q1 -86 146 -184q66 68 65 143q0 57 -32.5 93 t-83.5 36q-41 0 -68 -24.5t-27 -63.5z" />
<glyph unicode="'" horiz-adv-x="608" d="M156 1153q0 66 42 110t105 44t105.5 -44t42.5 -110q0 -53 -21 -129l-102 -383h-49l-103 383q-20 76 -20 129z" />
<glyph unicode="(" horiz-adv-x="663" d="M84 457q0 500 502 891h104q-152 -168 -220.5 -381t-68.5 -523q0 -534 289 -890h-104q-502 416 -502 903z" />
<glyph unicode=")" horiz-adv-x="663" d="M-27 -446q289 356 289 890q0 309 -68.5 522.5t-220.5 381.5h105q502 -391 502 -891q0 -487 -502 -903h-105z" />
<glyph unicode="*" horiz-adv-x="1032" d="M59 995l27 90l313 -32l70 321h90l72 -321l311 32l29 -90l-269 -159l127 -297l-79 -50l-236 209l-235 -209l-80 50l127 297z" />
<glyph unicode="+" horiz-adv-x="1366" d="M125 569v215h450v451h216v-451h450v-215h-450v-450h-216v450h-450z" />
<glyph unicode="," horiz-adv-x="702" d="M147 119q0 72 53.5 118t137.5 46q109 0 177.5 -71t68.5 -183q0 -125 -80 -209q-103 -111 -318 -121l-18 111q227 27 227 131q0 27 -49 26q-199 0 -199 152z" />
<glyph unicode="-" horiz-adv-x="849" d="M66 291v241h718v-241h-718z" />
<glyph unicode="." horiz-adv-x="702" d="M156 150q0 74 56 123t140 49q86 0 141.5 -48.5t55.5 -123.5q0 -76 -55.5 -125.5t-141.5 -49.5t-141 49.5t-55 125.5z" />
<glyph unicode="/" horiz-adv-x="569" d="M0 -33l395 1407h174l-395 -1407h-174z" />
<glyph unicode="0" d="M100 637q0 311 119 490.5t326 179.5t325.5 -179.5t118.5 -490.5t-118.5 -490.5t-325.5 -179.5t-326 179.5t-119 490.5zM420 410q0 -176 6 -215q23 -135 119 -136q96 0 119 140q6 37 6 213v372q0 264 -27 351q-25 78 -98 77q-76 0 -99 -77q-27 -84 -26 -349v-376z" />
<glyph unicode="1" d="M147 1012q258 104 418 295h148v-1108q0 -80 32 -97q25 -12 84 -12h84v-90h-702v90h88q63 0 85 19.5t22 76.5v826q-80 -47 -230 -78z" />
<glyph unicode="2" d="M80 0v90q301 319 409.5 485t108.5 310q0 102 -51 161.5t-137 59.5q-152 0 -205 -197h-99q33 190 147 294t288 104q164 0 266 -98.5t102 -256.5q0 -221 -209 -403l-342 -299h312q102 0 139 30.5t51 131.5h96l-45 -412h-831z" />
<glyph unicode="3" d="M100 135q0 53 37 93t88 40q72 0 142.5 -99t121.5 -99q63 0 102.5 75.5t39.5 200.5q0 281 -201 287q-20 0 -47 -6l-51 78q207 127 207 276q0 61 -35 99t-90 38q-84 0 -174 -121l-82 35q96 274 374 275q133 0 214 -62.5t81 -165.5q0 -184 -231 -278v-4q326 -37 326 -340 q0 -201 -153 -345.5t-366 -144.5q-133 0 -218 47t-85 121z" />
<glyph unicode="4" d="M86 289v110l598 908h141v-852h174v-166h-174v-322h-307v322h-432zM236 455h282v430h-4z" />
<glyph unicode="5" d="M121 152q0 47 32.5 80.5t82.5 33.5q68 0 133 -102.5t123 -102.5q72 0 118.5 72t46.5 180q0 133 -65.5 212t-173.5 79q-63 0 -133 -35l-72 39l35 666h473q55 0 63 33h82l-39 -271h-495l-10 -205q117 29 186 29q190 0 315 -125t125 -313q0 -199 -141 -327t-363 -128 q-143 0 -233 51.5t-90 133.5z" />
<glyph unicode="6" d="M113 500q0 317 196 535.5t522 271.5l46 -74q-365 -168 -418 -490q119 49 213 50q145 0 234 -103.5t89 -271.5q0 -199 -102 -318q-113 -133 -326 -133q-209 0 -331.5 144.5t-122.5 388.5zM424 371q0 -305 133 -305q70 0 98.5 64.5t28.5 225.5q0 184 -26.5 252t-98.5 68 q-52 0 -113 -37q-23 -100 -22 -268z" />
<glyph unicode="7" d="M104 881l35 393h860v-88l-467 -1219h-256l451 1037h-416q-66 0 -93.5 -27t-37.5 -96h-76z" />
<glyph unicode="8" d="M109 315q0 186 237 293q-117 84 -165 158t-48 170q0 160 120 265.5t300 105.5q147 0 262 -70q139 -86 139 -240q0 -182 -223 -272q248 -137 248 -371q0 -172 -125 -279.5t-324 -107.5q-184 0 -302.5 98.5t-118.5 249.5zM360 313q0 -104 43 -174q49 -82 142 -82 q80 0 136 54.5t56 130.5t-49 131q-59 61 -246 166q-82 -86 -82 -226zM377 1053q0 -68 51 -123.5t213 -153.5q68 74 68 203q0 109 -47.5 171t-129.5 62q-70 0 -112.5 -43.5t-42.5 -115.5z" />
<glyph unicode="9" d="M92 856q0 199 103 318q113 133 325 133q209 0 332 -144.5t123 -388.5q0 -317 -196.5 -535.5t-522.5 -271.5l-45 74q365 168 418 489q-119 -49 -213 -49q-145 0 -234.5 103.5t-89.5 271.5zM403 918q0 -184 27 -252t98 -68q52 0 113 37q23 100 23 268q0 305 -134 305 q-70 0 -98.5 -64.5t-28.5 -225.5z" />
<glyph unicode=":" horiz-adv-x="702" d="M156 150q0 74 56 123t140 49q86 0 141.5 -48.5t55.5 -123.5q0 -76 -55.5 -125.5t-141.5 -49.5t-141 49.5t-55 125.5zM156 688q0 74 56 123t140 49q86 0 141.5 -48t55.5 -124t-55.5 -125t-141.5 -49t-141 49t-55 125z" />
<glyph unicode=";" horiz-adv-x="702" d="M147 119q0 72 53.5 118t137.5 46q109 0 177.5 -71t68.5 -183q0 -125 -80 -209q-103 -111 -318 -121l-18 111q227 27 227 131q0 27 -49 26q-199 0 -199 152zM156 688q0 74 56 123t140 49q86 0 141.5 -48t55.5 -124t-55.5 -125t-141.5 -49t-141 49t-55 125z" />
<glyph unicode="&#x3c;" horiz-adv-x="1366" d="M127 580v192l1112 455v-223l-819 -328l819 -328v-223z" />
<glyph unicode="=" horiz-adv-x="1366" d="M125 328v215h1116v-215h-1116zM125 809v215h1116v-215h-1116z" />
<glyph unicode="&#x3e;" horiz-adv-x="1366" d="M127 125v223l819 328l-819 328v223l1112 -455v-192z" />
<glyph unicode="?" horiz-adv-x="849" d="M123 1137q0 72 65.5 116.5t171.5 44.5q170 0 279 -114.5t109 -296.5q0 -168 -105 -254q-55 -43 -197 -86q-104 -35 -104 -78q0 -18 16 -68h-92q-84 168 -84 256q0 102 115 152q104 33 211 65q115 37 115 111q0 78 -78 78q-37 0 -145.5 -24.5t-143.5 -24.5q-59 0 -96 33.5 t-37 89.5zM154 150q0 74 56 123t140 49q86 0 141.5 -48.5t55.5 -123.5q0 -76 -55.5 -125.5t-141.5 -49.5t-141 49.5t-55 125.5z" />
<glyph unicode="@" horiz-adv-x="1898" d="M6 479q0 455 301 751t762 296q383 0 598 -228q193 -205 193 -516q0 -301 -168 -526q-188 -256 -496 -256q-102 0 -160.5 52t-58.5 143q0 55 27 145l-5 4q-188 -344 -374 -344q-84 0 -134.5 67.5t-50.5 180.5q0 301 203 565q188 246 365 246q131 0 155 -168h4l35 127 l268 10l-202 -684q-33 -111 -33 -168q0 -37 25.5 -62.5t64.5 -25.5q74 0 178 74q123 86 199 223q96 170 96 381q0 305 -196.5 497.5t-507.5 192.5q-463 0 -736 -336q-236 -291 -235 -678q0 -381 240.5 -623.5t617.5 -242.5q303 0 553 165t350 441h66q-131 -324 -381 -495.5 t-590 -171.5q-424 0 -698.5 272t-274.5 692zM723 307q0 -104 63 -104q80 0 199 203q129 221 129 428q0 147 -78 147q-96 0 -207 -258q-106 -246 -106 -416z" />
<glyph unicode="A" horiz-adv-x="1550" d="M14 0v96q111 0 152 45q35 37 92 203l320 918l-19 45h369l372 -969q55 -143 101.5 -190.5t136.5 -51.5v-96h-743v96q104 0 146 15.5t42 54.5q0 41 -43 151l-47 121h-451l-36 -108q-45 -133 -46 -158q0 -76 181 -76v-96h-527zM487 565h359l-189 486z" />
<glyph unicode="B" horiz-adv-x="1439" d="M4 0v96q147 0 189 47q32 34 32 153v7v694q0 111 -43 148q-39 33 -153 33h-25v96q121 12 336 24q143 8 293 9q645 0 645 -336q0 -195 -258 -242v-4q160 -29 248 -120t88 -226q0 -379 -651 -379h-701zM569 287q0 -100 37 -139t137 -39q248 0 248 260q0 152 -86 229 q-57 51 -143 66q-52 8 -193 8v-385zM569 770h103q258 0 258 207q0 231 -281 231q-39 0 -80 -4v-434z" />
<glyph unicode="C" horiz-adv-x="1550" d="M96 614q0 303 223.5 498t583.5 195q131 0 259 -31t132 -31q25 0 37 29h76l18 -428h-96q-33 154 -143.5 248t-265.5 94q-203 0 -331 -150.5t-128 -390.5q0 -250 133 -405.5t348 -155.5q291 0 438 315h97q-25 -172 -125 -407l-6 -14q-31 10 -60 12q-20 4 -65 4 q-63 0 -188.5 -14.5t-188.5 -14.5q-311 0 -520 166q-227 178 -228 481z" />
<glyph unicode="D" horiz-adv-x="1734" d="M43 0v96q117 0 156 43q32 39 32 156v684q0 115 -30 151q-37 47 -158 48v96q135 12 356 22q231 10 379 11q416 0 631 -163t215 -466q0 -301 -199 -479q-225 -199 -661 -199h-721zM575 373q0 -184 24 -228.5t122 -44.5q250 0 395.5 148.5t145.5 400.5q0 254 -142.5 405.5 t-380.5 151.5q-78 0 -164 -14v-819z" />
<glyph unicode="E" horiz-adv-x="1329" d="M8 0v96q137 0 178 38t41 151v704q0 123 -47 160q-39 29 -157 29v96h1177l19 -305h-97q-14 104 -43.5 141t-105.5 37h-402v-447h265q111 0 147.5 31t36.5 125h96v-428h-96q0 86 -36 115.5t-146 29.5h-267v-329q0 -80 19.5 -98.5t103.5 -18.5h238q125 0 184 55 q47 45 72 158h96l-27 -340h-1249z" />
<glyph unicode="F" horiz-adv-x="1236" d="M4 0v96q143 2 184 43q35 31 35 135v709q0 121 -40 158t-160 37v96h1167v-307h-96q-16 129 -64 159q-33 20 -166 21h-297v-447h281q113 0 147 25q43 31 43 131h97v-430h-97q0 98 -51 129q-33 18 -137 18h-283v-270q0 -125 35 -162q41 -45 193 -45v-96h-791z" />
<glyph unicode="G" horiz-adv-x="1624" d="M96 633q0 297 216 485.5t558 188.5q125 0 287 -33t184 -33q29 0 39 33h64v-420h-96q-35 164 -146.5 254t-277.5 90q-205 0 -334 -152.5t-129 -394.5q0 -246 129 -405.5t328 -159.5q121 0 182 45v211q0 111 -48 148q-43 32 -161 32h-27v96h729v-96q-88 -2 -118.5 -45 t-30.5 -153v-246l-8 -4q-213 -106 -576 -107q-393 0 -598 223q-166 180 -166 443z" />
<glyph unicode="H" horiz-adv-x="1753" d="M45 0v96q111 4 145.5 40t34.5 159v686q0 119 -37.5 158t-142.5 39v96h703v-96q-109 -6 -142 -37q-37 -37 -37 -158v-264h615v256q0 121 -34 160t-138 43v96h694v-96q-111 -2 -144.5 -38t-33.5 -139v-702q0 -117 28 -154q35 -47 150 -49v-96h-694v96q102 4 137 43t35 156 v297h-615v-303q0 -104 29 -142q35 -49 150 -51v-96h-703z" />
<glyph unicode="I" horiz-adv-x="794" d="M43 0v96q104 0 143 43q33 39 33 142v700q0 113 -34.5 155t-141.5 42v96h707v-96q-117 0 -154 -45q-33 -37 -33 -152v-688q0 -109 29 -146q37 -51 158 -51v-96h-707z" />
<glyph unicode="J" horiz-adv-x="774" d="M-252 -334q0 59 52.5 108.5t115.5 49.5q72 0 143.5 -77t92.5 -77q51 0 63 150v190v969q0 119 -33 156q-39 43 -155 43v96h718v-96q-115 -2 -150.5 -38t-35.5 -159v-748q0 -708 -553 -708h-2q-256 0 -256 141z" />
<glyph unicode="K" horiz-adv-x="1624" d="M33 0v96q119 0 155 43q35 37 35 158v713q0 94 -41 131t-149 37v96h725v-96q-115 0 -153 -37t-38 -156v-311q182 63 287 168q55 55 107 135q55 88 55 129q0 39 -32 53.5t-112 18.5v96h588v-96q-168 0 -254 -86q-23 -23 -116 -152t-175 -205q35 -33 95 -88 q66 -66 192.5 -232.5t177.5 -217.5q57 -57 98.5 -77t131.5 -24v-96h-764v96q139 0 139 58q0 63 -270 333q-104 104 -148 105v-297q0 -117 31 -154q39 -45 160 -45v-96h-725z" />
<glyph unicode="L" horiz-adv-x="1296" d="M25 0v96q127 0 168 45q32 36 32 147v7v688q0 117 -32 154q-39 41 -168 41v96h753v-96q-131 0 -170 -37t-39 -158v-711q0 -98 31 -125q25 -20 121 -20h156q102 0 151 33q68 43 189 211h96l-156 -371h-1132z" />
<glyph unicode="M" horiz-adv-x="1900" d="M35 0v96q90 0 116.5 37t38.5 180l50 611q8 102 8 147q0 106 -137 107v96h495l346 -787l344 787h500v-96q-94 0 -122.5 -15.5t-28.5 -77.5q0 -23 4 -71l67 -774q8 -84 42 -114t138 -30v-96h-702v96q115 0 151.5 24.5t36.5 96.5q0 20 -2 49l-57 742h-4l-442 -1008h-70 l-432 977h-4l-60 -723q-1 -16 -1 -30q0 -66 30 -94q37 -34 139 -34v-96h-444z" />
<glyph unicode="N" horiz-adv-x="1658" d="M27 0v96q111 0 148.5 39t37.5 164v825q-53 53 -172 54v96h483l779 -828v549q0 102 -33 138q-39 45 -156 45v96h518v-96q-111 0 -147.5 -38t-36.5 -147v-1007h-162l-928 979v-676q0 -113 37 -153t158 -40v-96h-526z" />
<glyph unicode="O" horiz-adv-x="1753" d="M102 629q0 283 193 469q219 209 614 209q387 0 584 -224q158 -178 158 -432q0 -258 -164 -444q-211 -240 -631 -240q-391 0 -592 223q-162 180 -162 439zM467 723q0 -291 127 -474t328 -183q160 0 258 120q106 129 106 367q0 291 -123 473t-317 182q-156 0 -258 -110 q-121 -129 -121 -375z" />
<glyph unicode="P" horiz-adv-x="1345" d="M37 0v96q109 0 145.5 40t36.5 159v629q0 168 -26.5 206.5t-155.5 47.5v96l403 22q231 10 283 11q264 0 418.5 -103.5t154.5 -294.5q0 -158 -108 -266q-135 -135 -402 -135q-115 0 -223 22v-272q0 -94 45 -128t187 -34v-96h-758zM563 631q41 -10 96 -10q127 0 200 79.5 t73 219.5q0 135 -67.5 211.5t-186.5 76.5q-70 0 -115 -14v-563z" />
<glyph unicode="Q" horiz-adv-x="1753" d="M102 629q0 281 195 469q219 209 610 209q379 0 578 -213q166 -178 166 -443q0 -242 -138.5 -416t-379.5 -235q45 -23 116 -94q152 -152 246 -201q82 -45 199 -45h10l-41 -88q-86 -25 -203 -25q-174 0 -313 70q-123 61 -276.5 190.5t-286.5 192.5q-219 57 -350.5 228 t-131.5 401zM467 723q0 -291 127 -474t328 -183q168 0 266 131t98 356q0 291 -123 473t-317 182q-160 0 -262 -114q-117 -131 -117 -371z" />
<glyph unicode="R" horiz-adv-x="1642" d="M16 0v96q129 0 171 35t42 145v715q0 115 -41 151t-172 36v96q104 8 373 22q209 10 326 11q291 0 436 -68q190 -88 190 -303q0 -238 -292 -334q72 -55 170 -194q111 -160 167 -218q109 -108 287 -112v-96h-252q-264 0 -387 122q-68 68 -188 236q-115 158 -164 201h-109 v-275q0 -115 60 -147q39 -23 160 -23v-96h-777zM573 641h12q209 -1 299 67q92 70 93 232q0 125 -79 196.5t-224 71.5h-101v-567z" />
<glyph unicode="S" horiz-adv-x="1181" d="M96 387h97q43 -147 139 -229t223 -82q94 0 152.5 51t58.5 131q0 109 -168 211q-158 94 -315 186q-168 127 -168 297q0 135 92 232q117 123 344 123q88 0 193.5 -20.5t123.5 -20.5q33 0 45 26h68l35 -364h-96q-41 127 -136.5 198.5t-210.5 71.5q-80 0 -130 -36t-50 -93 q0 -82 178 -182q272 -152 328 -197q178 -143 178 -334q0 -174 -133 -281.5t-346 -107.5q-86 0 -206 22.5t-124 22.5q-41 0 -51 -30h-65z" />
<glyph unicode="T" horiz-adv-x="1495" d="M45 897l39 410h88q23 -33 102 -33h922q74 0 94.5 5t34.5 28h88l37 -410h-96q-20 152 -60.5 200t-142.5 48h-231v-842q0 -135 37.5 -171t187.5 -36v-96h-795v96q150 0 187.5 36t37.5 171v842h-243q-80 0 -121 -45q-49 -55 -70 -203h-96z" />
<glyph unicode="U" horiz-adv-x="1624" d="M12 1178v96h699v-96q-109 0 -146 -38t-37 -143v-544q0 -309 355 -310q377 0 377 406v432q0 119 -40 158t-165 39v96h557v-96q-129 0 -168 -36t-39 -159v-453q0 -563 -604 -563q-285 0 -451 123t-166 346v543q0 111 -34.5 155t-137.5 44z" />
<glyph unicode="V" horiz-adv-x="1605" d="M18 1178v96h773v-96q-209 0 -209 -82q0 -39 39 -125l272 -596l235 526q72 160 72 201q0 76 -156 76h-24v96h565v-96q-113 0 -161 -40t-115 -190l-445 -981h-149l-430 955q-80 176 -121 216t-146 40z" />
<glyph unicode="W" horiz-adv-x="2344" d="M12 1178v96h643v-96q-104 0 -104 -60q0 -45 65 -172l342 -667l183 331l-207 410q-47 94 -87 126t-112 32v96h975v-96q-78 0 -115 -29q-43 -35 -110 -156l-99 -178l267 -514l307 670q47 102 47 139q0 68 -147 68v96h471v-96q-98 -2 -144.5 -46.5t-115.5 -197.5l-443 -967 h-164l-260 516l-286 -516h-160l-494 963q-84 164 -129 207q-43 41 -116 41h-7zM1227 1143q0 -18 14 -45l82 -158l76 137q25 45 24 58q0 43 -108 43q-88 0 -88 -35z" />
<glyph unicode="X" horiz-adv-x="1716" d="M27 0v96q96 4 172 51q51 33 143 119l354 336l-317 393q-90 113 -151.5 147t-176.5 36v96h819v-96q-151 0 -151 -55q0 -19 53 -89l160 -207l170 168q86 84 86 127q0 55 -135 56v96h573v-96h-10q-78 0 -133 -31q-72 -37 -201 -160l-270 -258l366 -459q139 -174 299 -174 v-96h-784v96q82 0 109.5 10.5t27.5 40.5q0 33 -57 105l-201 252l-276 -273q-51 -51 -52 -75q0 -60 137 -60h5v-96h-559z" />
<glyph unicode="Y" horiz-adv-x="1605" d="M23 1178v96h737v-96q-139 0 -139 -52q0 -23 32 -67l287 -389l207 323q53 84 53 119q0 66 -135 66v96h518v-96q-102 0 -151.5 -35t-133.5 -164l-301 -463v-225q0 -119 37 -157t166 -38v-96h-751v96q129 0 169 43q35 37 35 154v211l-377 510q-76 102 -121.5 133t-131.5 31z " />
<glyph unicode="Z" horiz-adv-x="1495" d="M41 0v127l885 1020h-437q-141 0 -192 -39q-59 -47 -72 -197h-96l10 363h1225v-127l-881 -1020h539q137 0 191.5 54.5t95.5 250.5h94l-27 -432h-1335z" />
<glyph unicode="[" horiz-adv-x="737" d="M203 -438v1775h557v-90q-176 0 -215 -17.5t-39 -94.5v-1366q0 -82 38 -99.5t216 -17.5v-90h-557z" />
<glyph unicode="\" horiz-adv-x="569" d="M0 1374h174l395 -1407h-174z" />
<glyph unicode="]" horiz-adv-x="737" d="M-23 -348q178 0 216 17.5t38 99.5v1366q0 78 -38.5 95t-215.5 17v90h558v-1775h-558v90z" />
<glyph unicode="^" horiz-adv-x="1036" d="M72 655l405 719h84l406 -719h-152l-297 512l-295 -512h-151z" />
<glyph unicode="_" horiz-adv-x="1024" d="M-12 -154h1048v-102h-1048v102z" />
<glyph unicode="`" horiz-adv-x="681" d="M-72 1376h414l160 -405h-160z" />
<glyph unicode="a" d="M104 199q0 88 64 151q53 53 222 104.5t226 104.5v41q0 84 -14 115q-23 47 -92 47q-45 0 -71.5 -30t-26.5 -70q0 -18 6 -37l-287 -103q-10 31 -10 88q0 127 174 197q131 53 274 53q119 0 211 -45q143 -68 144 -217v-338q0 -129 41 -129q24 1 57 21l39 -62 q-139 -115 -277 -115q-68 0 -101.5 26t-57.5 95q-121 -121 -256 -121q-119 0 -192 61.5t-73 162.5zM403 236q0 -53 26 -91.5t63 -38.5q38 0 124 78v265q-66 -31 -172 -105q-41 -41 -41 -108z" />
<glyph unicode="b" horiz-adv-x="1218" d="M8 1217v67l375 90h68v-678q182 164 348 164q150 0 247 -110.5t97 -280.5q0 -223 -151.5 -358.5t-401.5 -135.5q-248 1 -447 62v1073q0 76 -135 107zM451 338q0 -260 167 -260q98 0 154 86q47 78 47 198q0 141 -58.5 225.5t-144.5 84.5q-89 -1 -165 -97v-237z" />
<glyph unicode="c" horiz-adv-x="1071" d="M94 381q0 190 137 326q157 153 421 153h3q162 0 258.5 -55t96.5 -148q0 -51 -37 -86.5t-90 -35.5q-76 0 -168 107.5t-140 107.5q-68 0 -108.5 -80t-40.5 -209q0 -168 67.5 -262.5t186.5 -94.5q131 1 262 134l74 -48q-172 -215 -459 -215q-211 0 -337 111t-126 295z" />
<glyph unicode="d" horiz-adv-x="1236" d="M96 356q0 223 147.5 363.5t381.5 140.5q88 0 157 -24v254q0 55 -24.5 79.5t-110.5 47.5v67l375 90h68v-1050q0 -98 4 -121q14 -76 71 -76q29 0 66 10v-80l-359 -82h-90v154q-168 -154 -348 -154q-147 0 -242.5 107.5t-95.5 273.5zM420 473q0 -137 53 -227t133 -90 q86 0 176 90v416q-90 96 -176 96q-84 0 -135 -77t-51 -208z" />
<glyph unicode="e" d="M94 389q0 211 133 341t346 130q193 0 281 -88q57 -57 90 -170q29 -100 72 -123v-55h-590q8 -125 82 -211t176 -86h2q124 0 256 149l64 -51q-195 -250 -494 -250q-190 0 -304 112t-114 302zM418 502h252v14q0 234 -129 234q-123 0 -123 -248z" />
<glyph unicode="f" horiz-adv-x="774" d="M59 0v90q90 0 122 28.5t32 123.5v467h-154v59l154 68q0 283 215 430q161 108 351 108h3q104 0 199 -39q88 -35 88 -69q0 -29 -61.5 -104t-96.5 -75q-25 0 -113.5 80t-152.5 80q-88 0 -113 -102q-12 -47 -12 -174v-135h195l-8 -127h-187v-447q0 -113 40 -144 q35 -28 147 -28h30v-90h-678z" />
<glyph unicode="g" horiz-adv-x="1218" d="M96 -268q0 47 31 78q20 20 91 53t93 51q-192 68 -192 187q0 56 32.5 89t98.5 50q88 20 137 45v4q-111 20 -182.5 95t-71.5 169q0 139 126 223t331 84q195 0 295 -67l299 65v-231l-191 55q29 -63 29 -125q0 -123 -113 -201q-126 -90 -356 -90h-10q-6 -4 -101 -43 q-41 -18 -41 -43q0 -49 123 -53l303 -10q332 -10 332 -240q0 -160 -167 -256t-441 -96q-207 0 -331 56.5t-124 150.5zM356 -215q0 -66 83 -112t202 -46q129 0 207 43t78 115q0 68 -86 84q-27 4 -142 4q-188 0 -284 18q-57 -47 -58 -106zM432 582q0 -96 44 -156.5t114 -60.5 q133 0 133 172q0 104 -42 164.5t-114 60.5q-61 0 -98 -49t-37 -131z" />
<glyph unicode="h" horiz-adv-x="1255" d="M20 0v90q84 2 113 45q20 33 21 119v844q0 47 -45 73q-18 10 -89 31v68l363 104h78v-663q242 149 414 149h2q221 0 221 -330v-268q0 -106 24 -140q23 -32 83 -32h7v-90h-540v90h7q65 0 89 37q23 33 23 115v247q0 197 -119 197q-94 0 -211 -80v-366q0 -84 28.5 -117 t110.5 -33v-90h-580z" />
<glyph unicode="i" horiz-adv-x="663" d="M41 0v90q78 4 105.5 36t27.5 120v356q0 49 -43 76q-14 8 -90 31v67l362 105h78v-641q0 -82 30 -116t110 -34v-90h-580zM125 1176q0 74 57.5 123t141.5 49q86 0 140 -47t54 -119q0 -76 -57.5 -126t-141.5 -50t-139 48t-55 122z" />
<glyph unicode="j" horiz-adv-x="659" d="M-246 -340q0 53 49.5 99t106.5 46q66 0 127 -78.5t92 -78.5q35 0 45 34.5t10 141.5v774q0 49 -21.5 67.5t-111.5 41.5v69l365 105h76v-820q0 -252 -127 -394t-355 -142q-113 0 -184.5 38t-71.5 97zM125 1176q0 74 57.5 123t141.5 49q86 0 140 -47t54 -119 q0 -76 -57.5 -126t-141.5 -50t-139 48t-55 122z" />
<glyph unicode="k" horiz-adv-x="1181" d="M14 0v90q70 0 100.5 32t30.5 120v860q0 86 -122 110v74l358 88h72v-885l237 185q33 25 33 45q1 17 -17 23q-11 4 -45 4q-18 0 -43 -1v91h496v-91q-166 0 -323 -133l-66 -55l233 -293q84 -106 124 -137t100 -37v-90h-516v90h4q43 0 43 25q0 10 -31 49l-225 282h-4v-172 q0 -115 28 -153q25 -31 86 -31v-90h-553z" />
<glyph unicode="l" horiz-adv-x="663" d="M20 0v90q96 2 127 32t31 132v825q0 51 -31.5 74t-126.5 49v76l388 96h77v-1136q0 -82 31 -116q29 -32 106 -32h9v-90h-611z" />
<glyph unicode="m" horiz-adv-x="1921" d="M41 0v90q78 0 105.5 32t27.5 118v333q0 70 -27 95q-18 18 -106 43v65l371 105h69v-176q246 155 398 155h2q170 0 217 -164q268 164 422 164q223 0 223 -332v-292q0 -146 106 -146h9v-90h-537v90q115 0 115 141v232q0 121 -26 171t-91 50q-76 0 -207 -80v-356 q0 -94 26 -128q24 -30 81 -30h14v-90h-543v90q68 0 91.5 34t23.5 138v238q0 184 -115 184q-72 0 -209 -80v-342q0 -102 27 -136t106 -36v-90h-573z" />
<glyph unicode="n" horiz-adv-x="1273" d="M35 0v90q76 0 104.5 34t28.5 116v333q0 63 -25.5 90t-107.5 48v65l368 105h72v-176q262 155 400 155h2q229 0 229 -287v-311q0 -106 24.5 -139t98.5 -33v-90h-545v90q63 0 89 36t26 136v238q0 184 -117 184q-80 0 -207 -80v-342q0 -100 27.5 -136t105.5 -36v-90h-573z " />
<glyph unicode="o" horiz-adv-x="1218" d="M86 401q0 186 131 314q150 145 410 145q231 0 368.5 -115.5t137.5 -308.5q0 -203 -153.5 -332t-397.5 -129q-219 0 -357.5 119t-138.5 307zM410 539q0 -152 59 -287q72 -166 193 -166q66 0 106.5 58.5t40.5 156.5q0 141 -53 277q-70 172 -189 172q-72 0 -114.5 -57.5 t-42.5 -153.5z" />
<glyph unicode="p" horiz-adv-x="1236" d="M33 -385q78 0 105.5 34t27.5 118v788q0 80 -19.5 102.5t-113.5 51.5v67l364 105h76v-176q167 155 330 155h2q156 0 256 -110.5t100 -284.5q0 -182 -112 -320q-141 -170 -402 -170q-76 0 -162 23l-12 2v-197q0 -131 37 -161q31 -27 166 -27v-90h-643v90zM473 182 q92 -104 193 -104q80 0 126 70.5t46 195.5q0 150 -54.5 242t-144.5 92q-82 0 -166 -74v-422z" />
<glyph unicode="q" horiz-adv-x="1236" d="M86 369q0 213 149.5 352t378.5 139q178 0 330 -84l86 84h68q-18 -104 -19 -346v-743q0 -92 31 -124t125 -32v-90h-660v90h16q115 0 147 27q34 30 34 149v354h-4q-133 -170 -317 -170q-158 0 -261.5 112t-103.5 282zM464 241q54 -81 146 -81q90 0 162 96v250 q0 252 -170 252q-192 0 -192 -298q0 -138 54 -219z" />
<glyph unicode="r" horiz-adv-x="868" d="M27 0v90q82 0 112.5 30t30.5 122v317q0 63 -24.5 90t-100.5 45v70l354 117h78v-213h4q114 192 184 192h1q57 0 211 -65q-47 -182 -123 -271q-137 74 -174 74q-31 0 -103 -74v-262q0 -115 33 -143.5t154 -28.5v-90h-637z" />
<glyph unicode="s" horiz-adv-x="849" d="M74 598q0 121 102.5 191.5t276.5 70.5q143 0 282 -53l6 -244h-79q-78 203 -220 203q-41 0 -67.5 -20.5t-26.5 -51.5q0 -47 111 -110q166 -94 205 -125q111 -92 110 -209q0 -123 -93 -199t-243 -76q-61 0 -136 15.5t-91 15.5q-27 0 -39 -31h-66l-20 269h86q23 -74 78 -120 t121 -46q96 0 96 72q0 51 -102 120q-166 111 -189 131q-102 90 -102 197z" />
<glyph unicode="t" horiz-adv-x="794" d="M63 709v67q225 94 332 314h80v-254h275l-31 -127h-244v-385q0 -86 10 -123q23 -70 86 -70q68 0 154 92l41 -71q-53 -78 -145.5 -127.5t-188.5 -49.5q-264 0 -264 326v408h-105z" />
<glyph unicode="u" horiz-adv-x="1273" d="M72 721v74l331 65h72v-485q0 -225 129 -225q90 0 197 83v316q0 94 -21.5 118.5t-134.5 51.5v76l391 65h72v-641q0 -104 59 -104q35 0 60 10v-72l-353 -78h-73v148q-272 -147 -402 -148q-231 0 -231 330v336q0 68 -96 80z" />
<glyph unicode="v" horiz-adv-x="1126" d="M14 745v91h582v-91q-115 -2 -115 -53q0 -18 19 -59l155 -344l117 246q41 86 41 129q0 81 -136 81h-3v91h438v-91q-76 0 -115 -32.5t-86 -137.5l-276 -600h-160l-250 551q-68 152 -99.5 183.5t-111.5 35.5z" />
<glyph unicode="w" horiz-adv-x="1624" d="M16 745v91h537v-91q-78 -6 -78 -65q0 -33 27 -96l110 -265l140 287l-17 41q-23 57 -45 75.5t-65 22.5v91h522v-91q-96 -2 -96 -59q0 -23 32 -102l109 -265l92 207q41 92 41 133q0 78 -104 86v91h387v-91q-78 -8 -116 -51t-106 -198l-225 -521h-143l-207 498l-236 -498 h-137l-248 592q-43 102 -76.5 137t-97.5 41z" />
<glyph unicode="x" horiz-adv-x="1126" d="M25 0v90q59 0 108 28.5t133 108.5l156 148l-213 256q-49 59 -80 82q-45 31 -104 32v91h548v-91q-57 -6 -57 -34q0 -20 27 -54l75 -94l64 60q43 41 43 71q0 51 -63 51v91h401v-91q-59 -2 -102 -26.5t-125 -102.5l-148 -139l234 -282q53 -63 82 -80q37 -23 106 -25v-90 h-584v90q72 4 72 43q0 27 -25 55l-84 101l-90 -88q-37 -37 -37 -64q0 -47 74 -47v-90h-411z" />
<glyph unicode="y" horiz-adv-x="1107" d="M6 745v91h592v-91q-102 0 -102 -55q0 -27 30 -90l131 -268l109 211q45 88 45 121q0 76 -127 81v91h418v-91q-76 -2 -115 -45t-131 -225l-371 -729q-66 -127 -114.5 -174t-128.5 -47q-68 0 -110 38t-42 97q0 55 39 94t104 43q98 8 111 13q61 20 100 98l48 92l-263 530 q-61 123 -82 150q-53 63 -141 65z" />
<glyph unicode="z" d="M80 0v72l514 637h-232q-78 0 -108.5 -27t-91.5 -150h-82l72 349h84q10 -45 51 -45h712v-72l-516 -637h230q113 0 155 33q37 25 103 137h76l-97 -297h-870z" />
<glyph unicode="{" horiz-adv-x="811" d="M129 420v57q92 8 147 80q49 63 50 143q0 59 -27 171t-27 167q0 117 93 213q115 119 319 119v-47q-98 -14 -152 -78q-43 -51 -43 -115q0 -68 23 -169q25 -113 25 -177q0 -117 -89.5 -209t-236.5 -124v-5q147 -33 236.5 -125t89.5 -208q0 -59 -24 -173t-24 -173 q0 -63 43 -115q53 -63 152 -78v-47q-205 0 -319 119q-92 96 -93 213q0 57 27 167.5t27 170.5q0 82 -50 143q-55 72 -147 80z" />
<glyph unicode="|" horiz-adv-x="1118" d="M451 -102v1476h217v-1476h-217z" />
<glyph unicode="}" horiz-adv-x="811" d="M127 -426q98 14 152 78q43 51 43 115q0 59 -24 172.5t-24 173.5q0 117 89.5 209t236.5 124v5q-147 33 -236.5 125t-89.5 208q0 66 24 177.5t24 168.5q0 63 -43 115q-53 63 -152 78v47q205 0 319 -119q92 -96 93 -213q0 -57 -27 -168.5t-27 -169.5q0 -80 50 -143 q55 -72 147 -80v-57q-92 -8 -147 -80q-49 -61 -50 -143q0 -66 27 -174.5t27 -163.5q0 -117 -93 -213q-115 -119 -319 -119v47z" />
<glyph unicode="~" horiz-adv-x="1366" d="M127 496q2 174 84 272q76 92 201 92q115 0 319.5 -89t267.5 -89q150 0 168 178h70q-6 -172 -84 -268t-209 -96q-104 0 -309 88t-270 88q-139 0 -168 -176h-70z" />
<glyph unicode="&#xa1;" horiz-adv-x="702" d="M154 686q0 76 55 125t141 49t141.5 -48t55.5 -124t-56.5 -125t-140.5 -49q-86 0 -141 48t-55 124zM162 -422q0 8 16 109l121 745h102l123 -745q14 -86 15 -113q0 -37 -47 -37h-254q-51 0 -63.5 8.5t-12.5 32.5z" />
<glyph unicode="&#xa2;" horiz-adv-x="1071" d="M94 379q0 233 178 364q162 117 410 117l121 414h104l-125 -424q227 -43 228 -193q0 -51 -37 -86.5t-90 -35.5q-80 0 -162 100l-150 -506q49 -25 111 -25q129 0 260 134l74 -48q-182 -223 -490 -215l-131 -450h-102l135 463q-152 27 -243 133t-91 258zM426 461 q0 -149 66 -258l151 518q-33 29 -70 29q-66 0 -106.5 -80t-40.5 -209z" />
<glyph unicode="&#xa3;" horiz-adv-x="1658" d="M8 -356q0 135 244 231l149 336h-301l33 98h309l111 254q182 418 361.5 602.5t406.5 184.5q125 0 220 -52.5t95 -119.5q0 -53 -52 -111.5t-103 -58.5q-57 0 -120 112.5t-118 112.5q-35 0 -57 -23q-45 -45 -158 -313q-147 -352 -278 -588h380l-28 -98h-418 q-106 -154 -215 -266l4 -4q102 39 197 39q123 0 254 -78q43 -27 194 -144q100 -78 152 -77q82 0 82 79q0 41 -35 113t-35 109q0 59 34 95t89 36q68 0 115 -55.5t47 -137.5q0 -164 -131 -271.5t-330 -107.5q-156 0 -285 76q-25 14 -182 137q-96 76 -174 76q-41 0 -100 -20 q-104 -268 -254 -269q-102 0 -103 103z" />
<glyph unicode="&#xa4;" horiz-adv-x="1366" d="M143 305l136 133q-68 115 -68 240q0 119 68 246l-136 135l164 160l133 -134q121 68 246 68q115 0 242 -68l135 134l160 -160l-133 -135q66 -117 65 -246q0 -131 -65 -240l133 -133l-160 -162l-135 131q-113 -68 -248 -67q-127 0 -240 67l-133 -131zM438 680 q0 -100 73 -173t173 -73t172 72t72 174t-71 174t-173 72q-100 0 -173 -72t-73 -174z" />
<glyph unicode="&#xa5;" horiz-adv-x="1605" d="M150 1178v96h712v-96q-115 0 -114 -52q0 -23 32 -67l160 -219l96 153q53 84 54 119q0 66 -111 66v96h494v-96q-102 0 -151.5 -35t-133.5 -164l-141 -217h405v-90h-455v-195h455v-90h-455v-96q0 -119 37 -157t166 -38v-96h-751v96q129 0 169 43q35 37 35 154v94h-454v90 h454v195h-454v90h391l-113 153q-127 172 -183 217.5t-144 45.5z" />
<glyph unicode="&#xa6;" horiz-adv-x="1118" d="M451 -102v634h217v-634h-217zM451 737v637h217v-637h-217z" />
<glyph unicode="&#xa7;" horiz-adv-x="976" d="M74 795q0 221 162 368q152 135 354 135q113 0 194.5 -39.5t81.5 -95.5q0 -43 -35.5 -82t-74.5 -39q-45 0 -122 72t-124 72q-43 0 -75 -30t-32 -71q1 -63 99 -206l157 -232q143 -211 197 -346q47 -121 47 -250q0 -221 -170 -364q-152 -131 -344 -131q-111 0 -192.5 41 t-81.5 94q0 41 35.5 82t72.5 41q41 0 118 -72t130 -72q41 0 70.5 27t29.5 65q0 63 -98 213l-180 273q-219 332 -219 547zM223 846q0 -174 137 -381l148 -223q115 -172 146.5 -246t31.5 -160q0 -31 -6 -51l4 -4q74 102 74 233q0 106 -60.5 226t-144.5 249l-123 187 q-135 205 -135 340q0 39 6 55l-4 4q-74 -98 -74 -229z" />
<glyph unicode="&#xa8;" horiz-adv-x="681" d="M6 1178q0 55 40 95t95 40t95 -40t40 -95t-39.5 -95.5t-95.5 -40.5q-55 0 -95 40.5t-40 95.5zM403 1178q0 55 40 95t96 40q55 0 95 -40t40 -95t-40 -95.5t-95 -40.5t-95.5 40.5t-40.5 95.5z" />
<glyph unicode="&#xa9;" horiz-adv-x="1579" d="M82 672q0 293 208 500.5t501 207.5t500.5 -207.5t207.5 -500.5t-208 -501t-500 -208q-293 0 -501 208t-208 501zM170 672q0 -256 182.5 -438.5t438.5 -182.5t438 182.5t182 438.5t-182 438t-438 182t-438.5 -182t-182.5 -438zM358 662q0 190 124 315t315 125 q78 0 156.5 -26.5t86.5 -26.5q39 0 47 51h39v-264h-39q-20 100 -85.5 158.5t-159.5 58.5q-123 0 -191.5 -97.5t-68.5 -271.5q0 -193 80 -289q68 -82 176 -82q147 0 260 140v-72q-123 -127 -320 -127q-186 0 -303 113.5t-117 294.5z" />
<glyph unicode="&#xaa;" horiz-adv-x="702" d="M53 915q0 49 38 87t136 67q113 29 156 59v23q0 88 -59 88q-53 0 -54 -49q0 -8 6 -27l-202 -65q-10 25 -11 53q0 78 97 121q82 35 202 35q111 0 174.5 -43t63.5 -119v-209q0 -55 16 -55q10 0 39 16l33 -45q-94 -74 -190 -74q-72 0 -105 62q-82 -61 -160 -62q-80 0 -130 38 t-50 99zM266 938q0 -72 45 -72q25 0 72 43v140q-61 -27 -78 -39q-39 -29 -39 -72z" />
<glyph unicode="&#xab;" horiz-adv-x="923" d="M47 457l375 379h82l-152 -379l152 -379h-82zM487 457l289 348h82l-113 -348l113 -353h-82z" />
<glyph unicode="&#xac;" horiz-adv-x="1366" d="M125 809v215h1116v-696h-215v481h-901z" />
<glyph unicode="&#xad;" horiz-adv-x="849" d="M66 291v241h718v-241h-718z" />
<glyph unicode="&#xae;" horiz-adv-x="1579" d="M82 672q0 293 208 500.5t501 207.5t500.5 -207.5t207.5 -500.5t-208 -501t-500 -208q-293 0 -501 208t-208 501zM170 672q0 -256 182.5 -438.5t438.5 -182.5t438 182.5t182 438.5t-182 438t-438 182t-438.5 -182t-182.5 -438zM395 274v33q61 -2 83 26.5t22 110.5v474 q0 70 -11 90q-16 37 -77 41v34h399q160 0 242 -63q76 -59 75 -156q0 -156 -178 -207l135 -249q49 -90 107 -101v-33h-242l-207 369h-45v-199q0 -80 19.5 -106.5t101.5 -30.5v-33h-424zM698 694q25 -4 47 -4q80 0 124 51.5t44 128.5q0 170 -165 170h-50v-346z" />
<glyph unicode="&#xaf;" horiz-adv-x="681" d="M41 1030v172h600v-172h-600z" />
<glyph unicode="&#xb0;" horiz-adv-x="839" d="M121 1008q0 125 87 212t212 87t212 -87t87 -212t-87 -212t-212 -87t-212 87t-87 212zM233 1008q0 -76 55.5 -131.5t131.5 -55.5q78 0 132 55.5t54 131.5q0 78 -54 132t-132 54q-76 0 -131.5 -54.5t-55.5 -131.5z" />
<glyph unicode="&#xb1;" horiz-adv-x="1366" d="M125 -59v215h1116v-215h-1116zM125 754v215h450v450h216v-450h450v-215h-450v-451h-216v451h-450z" />
<glyph unicode="&#xb2;" horiz-adv-x="647" d="M39 627v53q305 270 305 403q0 109 -100 109q-82 0 -113 -100h-78q45 215 264 215q102 0 167 -52.5t65 -134.5q0 -72 -41 -127t-164 -143l-113 -80v-4h136q82 0 103.5 13.5t29.5 68.5h78l-29 -221h-510z" />
<glyph unicode="&#xb3;" horiz-adv-x="647" d="M49 702q0 31 25.5 52.5t60.5 21.5q47 0 89 -51t67 -51q33 0 53.5 39t20.5 98q0 141 -109 141q-10 0 -33 -6l-39 49q123 66 123 140q0 63 -63 63q-41 0 -99 -63l-63 24q61 147 231 148q82 0 134.5 -34t52.5 -87q0 -82 -125 -139v-5q180 -35 180 -176q0 -104 -93 -180 t-222 -76q-82 0 -136.5 26t-54.5 66z" />
<glyph unicode="&#xb4;" horiz-adv-x="681" d="M139 969l160 405h414l-414 -405h-160z" />
<glyph unicode="&#xb6;" horiz-adv-x="1193" d="M43 813q0 205 121 326q78 78 176 106.5t295 28.5h516v-45h-43q-145 0 -145 -139v-1565h-101v1671h-180v-1671h-100v821q-272 0 -416 143q-123 123 -123 324z" />
<glyph unicode="&#xb7;" horiz-adv-x="702" d="M156 606q0 -76 55 -125t141 -49t141.5 49t55.5 125t-55.5 124t-141.5 48q-84 0 -140 -49t-56 -123z" />
<glyph unicode="&#xb8;" horiz-adv-x="681" d="M121 -385l24 78q39 -20 91 -21q86 0 86 64q0 63 -115 57l139 197h98l-49 -70q119 -35 119 -160q0 -86 -56.5 -135t-156.5 -49t-180 39z" />
<glyph unicode="&#xb9;" horiz-adv-x="647" d="M76 1151q160 59 254 156h102v-551q0 -51 9.5 -61.5t54.5 -10.5h55v-57h-436v57h43q51 0 62 7t11 36v412q-70 -25 -133 -35z" />
<glyph unicode="&#xba;" horiz-adv-x="774" d="M39 1032q0 121 101.5 198t256.5 77q152 0 244 -70t92 -186q0 -121 -102 -198t-262 -77q-145 0 -237.5 72t-92.5 184zM268 1112q0 -106 45 -184t107 -78q84 0 84 123q0 104 -43 182t-103 78q-90 0 -90 -121z" />
<glyph unicode="&#xbb;" horiz-adv-x="923" d="M66 104l112 353l-112 348h81l289 -348l-289 -353h-81zM420 78l151 379l-151 379h82l375 -379l-375 -379h-82z" />
<glyph unicode="&#xbc;" horiz-adv-x="1587" d="M76 1151q160 59 254 156h102v-551q0 -51 9.5 -61.5t54.5 -10.5h55v-57h-436v57h43q51 0 62 7t11 36v412q-70 -25 -133 -35zM309 -76l840 1383h174l-838 -1383h-176zM936 113v63l358 469h101v-436h100v-96h-100v-166h-203v166h-256zM1051 209h141v186h-4z" />
<glyph unicode="&#xbd;" horiz-adv-x="1587" d="M76 1151q160 59 254 156h102v-551q0 -51 9.5 -61.5t54.5 -10.5h55v-57h-436v57h43q51 0 62 7t11 36v412q-70 -25 -133 -35zM279 -76l839 1383h174l-837 -1383h-176zM979 20q305 270 305 404q0 109 -100 108q-82 0 -113 -100h-78q45 215 264 215q102 0 167 -52t65 -134 q0 -72 -41 -127t-164 -144l-113 -79v-5h136q82 0 103.5 13.5t29.5 68.5h78l-29 -221h-510v53z" />
<glyph unicode="&#xbe;" horiz-adv-x="1587" d="M49 702q0 31 25.5 52.5t60.5 21.5q47 0 89 -51t67 -51q33 0 53.5 39t20.5 98q0 141 -109 141q-10 0 -33 -6l-39 49q123 66 123 140q0 63 -63 63q-41 0 -99 -63l-63 24q61 147 231 148q82 0 134.5 -34t52.5 -87q0 -82 -125 -139v-5q180 -35 180 -176q0 -104 -93 -180 t-222 -76q-82 0 -136.5 26t-54.5 66zM258 -76l840 1383h174l-838 -1383h-176zM895 113v63l358 469h101v-436h100v-96h-100v-166h-203v166h-256zM1010 209h141v186h-4z" />
<glyph unicode="&#xbf;" horiz-adv-x="849" d="M102 -51q0 168 105 254q55 43 196 86q104 35 105 78q0 18 -16 67h92q84 -168 84 -256q0 -102 -115 -151q-104 -33 -211 -66q-115 -37 -115 -111q0 -78 78 -77q37 0 145.5 24.5t143.5 24.5q59 0 96 -34t37 -89q0 -72 -65.5 -117t-172.5 -45q-170 0 -278.5 115t-108.5 297z M303 688q0 74 56.5 123t140.5 49q86 0 141 -48t55 -124t-55 -125t-141 -49t-141.5 49t-55.5 125z" />
<glyph unicode="&#xc0;" horiz-adv-x="1550" d="M14 0v96q111 0 152 45q35 37 92 203l320 918l-19 45h369l372 -969q55 -143 101.5 -190.5t136.5 -51.5v-96h-743v96q104 0 146 15.5t42 54.5q0 41 -43 151l-47 121h-451l-36 -108q-45 -133 -46 -158q0 -76 181 -76v-96h-527zM362 1798h414l160 -405h-160zM487 565h359 l-189 486z" />
<glyph unicode="&#xc1;" horiz-adv-x="1550" d="M14 0v96q111 0 152 45q35 37 92 203l320 918l-19 45h369l372 -969q55 -143 101.5 -190.5t136.5 -51.5v-96h-743v96q104 0 146 15.5t42 54.5q0 41 -43 151l-47 121h-451l-36 -108q-45 -133 -46 -158q0 -76 181 -76v-96h-527zM487 565h359l-189 486zM573 1391l160 405h414 l-414 -405h-160z" />
<glyph unicode="&#xc2;" horiz-adv-x="1550" d="M14 0v96q111 0 152 45q35 37 92 203l320 918l-19 45h369l372 -969q55 -143 101.5 -190.5t136.5 -51.5v-96h-743v96q104 0 146 15.5t42 54.5q0 41 -43 151l-47 121h-451l-36 -108q-45 -133 -46 -158q0 -76 181 -76v-96h-527zM424 1393l137 379h410l153 -379h-229l-121 200 l-119 -200h-231zM487 565h359l-189 486z" />
<glyph unicode="&#xc3;" horiz-adv-x="1550" d="M14 0v96q111 0 152 45q35 37 92 203l320 918l-19 45h369l372 -969q55 -143 101.5 -190.5t136.5 -51.5v-96h-743v96q104 0 146 15.5t42 54.5q0 41 -43 151l-47 121h-451l-36 -108q-45 -133 -46 -158q0 -76 181 -76v-96h-527zM354 1438q16 133 68 219q70 113 188 113 q66 0 169.5 -56.5t141.5 -56.5q76 0 103 102h174q-31 -328 -254 -327q-66 0 -166 54t-137 54q-91 0 -109 -102h-178zM487 565h359l-189 486z" />
<glyph unicode="&#xc4;" horiz-adv-x="1550" d="M14 0v96q111 0 152 45q35 37 92 203l320 918l-19 45h369l372 -969q55 -143 101.5 -190.5t136.5 -51.5v-96h-743v96q104 0 146 15.5t42 54.5q0 41 -43 151l-47 121h-451l-36 -108q-45 -133 -46 -158q0 -76 181 -76v-96h-527zM440 1600q0 55 40 95t95 40t95 -40t40 -95 t-39.5 -95.5t-95.5 -40.5q-55 0 -95 40.5t-40 95.5zM487 565h359l-189 486zM837 1600q0 55 40 95t96 40q55 0 95 -40t40 -95t-40 -95.5t-95 -40.5t-95.5 40.5t-40.5 95.5z" />
<glyph unicode="&#xc5;" horiz-adv-x="1550" d="M14 0v96q111 0 152 45q35 37 92 203l320 918l-19 45h369l372 -969q55 -143 101.5 -190.5t136.5 -51.5v-96h-743v96q104 0 146 15.5t42 54.5q0 41 -43 151l-47 121h-451l-36 -108q-45 -133 -46 -158q0 -76 181 -76v-96h-527zM487 565h359l-189 486zM571 1593 q0 84 60.5 143.5t144.5 59.5t143.5 -59.5t59.5 -143.5t-59.5 -144t-143.5 -60t-144.5 60t-60.5 144zM653 1591q0 -51 36 -85.5t87 -34.5t86 34.5t35 85.5t-35 87t-86 36t-87 -35.5t-36 -87.5z" />
<glyph unicode="&#xc6;" horiz-adv-x="1882" d="M-43 0v96q158 -2 268 201l357 661q76 141 75 179q0 33 -51 41h-78v96h1203l18 -305h-96q-20 123 -51 150.5t-138 27.5h-293v-447h203q109 0 141.5 30t32.5 122h97v-418h-97q0 86 -41 112.5t-178 26.5h-158v-446h226q158 0 215 31q78 41 106 186h97l-25 -344h-1143v96 q100 -2 140 36t40 132v176h-372l-72 -127q-74 -131 -74 -163q0 -55 105 -54v-96h-457zM528 567h299v580h-4z" />
<glyph unicode="&#xc7;" horiz-adv-x="1550" d="M96 614q0 303 223.5 498t583.5 195q131 0 259 -31t132 -31q25 0 37 29h76l18 -428h-96q-33 154 -143.5 248t-265.5 94q-203 0 -331 -150.5t-128 -390.5q0 -250 133 -405.5t348 -155.5q291 0 438 315h97q-25 -172 -125 -407l-6 -14q-31 10 -60 12q-20 4 -65 4 q-63 0 -188.5 -14.5t-188.5 -14.5q-311 0 -520 166q-227 178 -228 481zM510 -385l25 78q39 -20 90 -21q86 0 86 64q0 63 -115 57l139 197h99l-50 -70q119 -35 119 -160q0 -86 -56 -135t-157 -49q-100 0 -180 39z" />
<glyph unicode="&#xc8;" horiz-adv-x="1329" d="M8 0v96q137 0 178 38t41 151v704q0 123 -47 160q-39 29 -157 29v96h1177l19 -305h-97q-14 104 -43.5 141t-105.5 37h-402v-447h265q111 0 147.5 31t36.5 125h96v-428h-96q0 86 -36 115.5t-146 29.5h-267v-329q0 -80 19.5 -98.5t103.5 -18.5h238q125 0 184 55 q47 45 72 158h96l-27 -340h-1249zM252 1798h414l160 -405h-160z" />
<glyph unicode="&#xc9;" horiz-adv-x="1329" d="M8 0v96q137 0 178 38t41 151v704q0 123 -47 160q-39 29 -157 29v96h1177l19 -305h-97q-14 104 -43.5 141t-105.5 37h-402v-447h265q111 0 147.5 31t36.5 125h96v-428h-96q0 86 -36 115.5t-146 29.5h-267v-329q0 -80 19.5 -98.5t103.5 -18.5h238q125 0 184 55 q47 45 72 158h96l-27 -340h-1249zM463 1391l160 405h414l-414 -405h-160z" />
<glyph unicode="&#xca;" horiz-adv-x="1329" d="M8 0v96q137 0 178 38t41 151v704q0 123 -47 160q-39 29 -157 29v96h1177l19 -305h-97q-14 104 -43.5 141t-105.5 37h-402v-447h265q111 0 147.5 31t36.5 125h96v-428h-96q0 86 -36 115.5t-146 29.5h-267v-329q0 -80 19.5 -98.5t103.5 -18.5h238q125 0 184 55 q47 45 72 158h96l-27 -340h-1249zM314 1393l137 379h410l153 -379h-229l-121 200l-119 -200h-231z" />
<glyph unicode="&#xcb;" horiz-adv-x="1329" d="M8 0v96q137 0 178 38t41 151v704q0 123 -47 160q-39 29 -157 29v96h1177l19 -305h-97q-14 104 -43.5 141t-105.5 37h-402v-447h265q111 0 147.5 31t36.5 125h96v-428h-96q0 86 -36 115.5t-146 29.5h-267v-329q0 -80 19.5 -98.5t103.5 -18.5h238q125 0 184 55 q47 45 72 158h96l-27 -340h-1249zM330 1600q0 55 40 95t95 40t95 -40t40 -95t-39.5 -95.5t-95.5 -40.5q-55 0 -95 40.5t-40 95.5zM727 1600q0 55 40 95t96 40q55 0 95 -40t40 -95t-40 -95.5t-95 -40.5t-95.5 40.5t-40.5 95.5z" />
<glyph unicode="&#xcc;" horiz-adv-x="794" d="M-15 1798h414l160 -405h-160zM43 0v96q104 0 143 43q33 39 33 142v700q0 113 -34.5 155t-141.5 42v96h707v-96q-117 0 -154 -45q-33 -37 -33 -152v-688q0 -109 29 -146q37 -51 158 -51v-96h-707z" />
<glyph unicode="&#xcd;" horiz-adv-x="794" d="M43 0v96q104 0 143 43q33 39 33 142v700q0 113 -34.5 155t-141.5 42v96h707v-96q-117 0 -154 -45q-33 -37 -33 -152v-688q0 -109 29 -146q37 -51 158 -51v-96h-707zM196 1391l160 405h414l-414 -405h-160z" />
<glyph unicode="&#xce;" horiz-adv-x="794" d="M43 0v96q104 0 143 43q33 39 33 142v700q0 113 -34.5 155t-141.5 42v96h707v-96q-117 0 -154 -45q-33 -37 -33 -152v-688q0 -109 29 -146q37 -51 158 -51v-96h-707zM47 1393l137 379h410l153 -379h-229l-121 200l-119 -200h-231z" />
<glyph unicode="&#xcf;" horiz-adv-x="794" d="M43 0v96q104 0 143 43q33 39 33 142v700q0 113 -34.5 155t-141.5 42v96h707v-96q-117 0 -154 -45q-33 -37 -33 -152v-688q0 -109 29 -146q37 -51 158 -51v-96h-707zM63 1600q0 55 40 95t95 40t95 -40t40 -95t-39.5 -95.5t-95.5 -40.5q-55 0 -95 40.5t-40 95.5zM460 1600 q0 55 40 95t96 40q55 0 95 -40t40 -95t-40 -95.5t-95 -40.5t-95.5 40.5t-40.5 95.5z" />
<glyph unicode="&#xd0;" horiz-adv-x="1734" d="M43 0v96q117 0 156 43q33 39 32 156v278h-188v127h188v279q0 115 -30 151q-37 47 -158 48v96q135 12 356 22q231 10 379 11q416 0 631 -163t215 -466q0 -301 -199 -479q-225 -199 -661 -199h-721zM575 373q0 -184 24 -228.5t122 -44.5q250 0 395.5 148.5t145.5 400.5 q0 254 -142.5 405.5t-380.5 151.5q-78 0 -164 -14v-492h295v-127h-295v-200z" />
<glyph unicode="&#xd1;" horiz-adv-x="1658" d="M27 0v96q111 0 148.5 39t37.5 164v825q-53 53 -172 54v96h483l779 -828v549q0 102 -33 138q-39 45 -156 45v96h518v-96q-111 0 -147.5 -38t-36.5 -147v-1007h-162l-928 979v-676q0 -113 37 -153t158 -40v-96h-526zM409 1438q16 133 68 219q70 113 188 113 q66 0 169.5 -56.5t141.5 -56.5q76 0 103 102h174q-31 -328 -254 -327q-66 0 -166 54t-137 54q-91 0 -109 -102h-178z" />
<glyph unicode="&#xd2;" horiz-adv-x="1753" d="M102 629q0 283 193 469q219 209 614 209q387 0 584 -224q158 -178 158 -432q0 -258 -164 -444q-211 -240 -631 -240q-391 0 -592 223q-162 180 -162 439zM465 1798h414l160 -405h-160zM467 723q0 -291 127 -474t328 -183q160 0 258 120q106 129 106 367q0 291 -123 473 t-317 182q-156 0 -258 -110q-121 -129 -121 -375z" />
<glyph unicode="&#xd3;" horiz-adv-x="1753" d="M102 629q0 283 193 469q219 209 614 209q387 0 584 -224q158 -178 158 -432q0 -258 -164 -444q-211 -240 -631 -240q-391 0 -592 223q-162 180 -162 439zM467 723q0 -291 127 -474t328 -183q160 0 258 120q106 129 106 367q0 291 -123 473t-317 182q-156 0 -258 -110 q-121 -129 -121 -375zM676 1391l160 405h414l-414 -405h-160z" />
<glyph unicode="&#xd4;" horiz-adv-x="1753" d="M102 629q0 283 193 469q219 209 614 209q387 0 584 -224q158 -178 158 -432q0 -258 -164 -444q-211 -240 -631 -240q-391 0 -592 223q-162 180 -162 439zM467 723q0 -291 127 -474t328 -183q160 0 258 120q106 129 106 367q0 291 -123 473t-317 182q-156 0 -258 -110 q-121 -129 -121 -375zM527 1393l137 379h410l153 -379h-229l-121 200l-119 -200h-231z" />
<glyph unicode="&#xd5;" horiz-adv-x="1753" d="M102 629q0 283 193 469q219 209 614 209q387 0 584 -224q158 -178 158 -432q0 -258 -164 -444q-211 -240 -631 -240q-391 0 -592 223q-162 180 -162 439zM457 1438q16 133 68 219q70 113 188 113q66 0 169.5 -56.5t141.5 -56.5q76 0 103 102h174q-31 -328 -254 -327 q-66 0 -166 54t-137 54q-91 0 -109 -102h-178zM467 723q0 -291 127 -474t328 -183q160 0 258 120q106 129 106 367q0 291 -123 473t-317 182q-156 0 -258 -110q-121 -129 -121 -375z" />
<glyph unicode="&#xd6;" horiz-adv-x="1753" d="M102 629q0 283 193 469q219 209 614 209q387 0 584 -224q158 -178 158 -432q0 -258 -164 -444q-211 -240 -631 -240q-391 0 -592 223q-162 180 -162 439zM467 723q0 -291 127 -474t328 -183q160 0 258 120q106 129 106 367q0 291 -123 473t-317 182q-156 0 -258 -110 q-121 -129 -121 -375zM543 1600q0 55 40 95t95 40t95 -40t40 -95t-39.5 -95.5t-95.5 -40.5q-55 0 -95 40.5t-40 95.5zM940 1600q0 55 40 95t96 40q55 0 95 -40t40 -95t-40 -95.5t-95 -40.5t-95.5 40.5t-40.5 95.5z" />
<glyph unicode="&#xd7;" horiz-adv-x="1366" d="M158 299l374 375l-374 375l151 151l375 -375l375 375l151 -151l-374 -375l372 -373l-151 -151l-373 372l-375 -375z" />
<glyph unicode="&#xd8;" horiz-adv-x="1753" d="M102 629q0 283 193 469q219 209 614 209q242 0 412 -88l102 118l74 -63l-92 -109q246 -193 246 -514q0 -258 -164 -444q-211 -240 -631 -240q-244 0 -410 86l-104 -123l-76 70l92 106q-123 90 -190 232q-66 135 -66 291zM467 723q0 -237 82 -397l610 706 q-117 176 -313 176q-156 0 -258 -110q-121 -129 -121 -375zM604 236q121 -170 318 -170q160 0 258 120q106 129 106 367q0 242 -76 387z" />
<glyph unicode="&#xd9;" horiz-adv-x="1624" d="M12 1178v96h699v-96q-109 0 -146 -38t-37 -143v-544q0 -309 355 -310q377 0 377 406v432q0 119 -40 158t-165 39v96h557v-96q-129 0 -168 -36t-39 -159v-453q0 -563 -604 -563q-285 0 -451 123t-166 346v543q0 111 -34.5 155t-137.5 44zM399 1798h414l160 -405h-160z" />
<glyph unicode="&#xda;" horiz-adv-x="1624" d="M12 1178v96h699v-96q-109 0 -146 -38t-37 -143v-544q0 -309 355 -310q377 0 377 406v432q0 119 -40 158t-165 39v96h557v-96q-129 0 -168 -36t-39 -159v-453q0 -563 -604 -563q-285 0 -451 123t-166 346v543q0 111 -34.5 155t-137.5 44zM610 1391l160 405h414l-414 -405 h-160z" />
<glyph unicode="&#xdb;" horiz-adv-x="1624" d="M12 1178v96h699v-96q-109 0 -146 -38t-37 -143v-544q0 -309 355 -310q377 0 377 406v432q0 119 -40 158t-165 39v96h557v-96q-129 0 -168 -36t-39 -159v-453q0 -563 -604 -563q-285 0 -451 123t-166 346v543q0 111 -34.5 155t-137.5 44zM461 1393l137 379h410l153 -379 h-229l-121 200l-119 -200h-231z" />
<glyph unicode="&#xdc;" horiz-adv-x="1624" d="M12 1178v96h699v-96q-109 0 -146 -38t-37 -143v-544q0 -309 355 -310q377 0 377 406v432q0 119 -40 158t-165 39v96h557v-96q-129 0 -168 -36t-39 -159v-453q0 -563 -604 -563q-285 0 -451 123t-166 346v543q0 111 -34.5 155t-137.5 44zM477 1600q0 55 40 95t95 40 t95 -40t40 -95t-39.5 -95.5t-95.5 -40.5q-55 0 -95 40.5t-40 95.5zM874 1600q0 55 40 95t96 40q55 0 95 -40t40 -95t-40 -95.5t-95 -40.5t-95.5 40.5t-40.5 95.5z" />
<glyph unicode="&#xdd;" horiz-adv-x="1605" d="M23 1178v96h737v-96q-139 0 -139 -52q0 -23 32 -67l287 -389l207 323q53 84 53 119q0 66 -135 66v96h518v-96q-102 0 -151.5 -35t-133.5 -164l-301 -463v-225q0 -119 37 -157t166 -38v-96h-751v96q129 0 169 43q35 37 35 154v211l-377 510q-76 102 -121.5 133t-131.5 31z M602 1391l160 405h414l-414 -405h-160z" />
<glyph unicode="&#xde;" horiz-adv-x="1345" d="M37 0v96q115 0 149 45q33 37 33 154v684q0 119 -34.5 159t-147.5 40v96h758v-96q-127 0 -179.5 -31t-52.5 -105q14 0 72 2h90q264 0 417.5 -104t153.5 -295q0 -158 -108 -266q-135 -135 -402 -135q-115 0 -223 22q0 -96 39 -131q47 -39 193 -39v-96h-758zM563 367 q41 -10 96 -11q127 0 200 80t73 219q0 152 -84 230q-68 61 -170 61q-62 0 -115 -16v-563z" />
<glyph unicode="&#xdf;" horiz-adv-x="1236" d="M29 0v90q123 0 123 113v665q0 502 501 502q442 0 443 -313q0 -254 -316 -322v-4q176 -23 277.5 -121t101.5 -245t-102 -254q-131 -135 -393 -134v86q184 0 192 265q4 168 -61.5 263t-184.5 103v82q178 16 178 256q0 252 -161 252q-96 0 -132 -69.5t-36 -229.5v-723 q0 -113 28 -147q18 -25 74 -25v-90h-532z" />
<glyph unicode="&#xe0;" d="M104 199q0 88 64 151q53 53 222 104.5t226 104.5v41q0 84 -14 115q-23 47 -92 47q-45 0 -71.5 -30t-26.5 -70q0 -18 6 -37l-287 -103q-10 31 -10 88q0 127 174 197q131 53 274 53q119 0 211 -45q143 -68 144 -217v-338q0 -129 41 -129q24 1 57 21l39 -62 q-139 -115 -277 -115q-68 0 -101.5 26t-57.5 95q-121 -121 -256 -121q-119 0 -192 61.5t-73 162.5zM131 1376h414l160 -405h-160zM403 236q0 -53 26 -91.5t63 -38.5q38 0 124 78v265q-66 -31 -172 -105q-41 -41 -41 -108z" />
<glyph unicode="&#xe1;" d="M104 199q0 88 64 151q53 53 222 104.5t226 104.5v41q0 84 -14 115q-23 47 -92 47q-45 0 -71.5 -30t-26.5 -70q0 -18 6 -37l-287 -103q-10 31 -10 88q0 127 174 197q131 53 274 53q119 0 211 -45q143 -68 144 -217v-338q0 -129 41 -129q24 1 57 21l39 -62 q-139 -115 -277 -115q-68 0 -101.5 26t-57.5 95q-121 -121 -256 -121q-119 0 -192 61.5t-73 162.5zM342 969l160 405h414l-414 -405h-160zM403 236q0 -53 26 -91.5t63 -38.5q38 0 124 78v265q-66 -31 -172 -105q-41 -41 -41 -108z" />
<glyph unicode="&#xe2;" d="M104 199q0 88 64 151q53 53 222 104.5t226 104.5v41q0 84 -14 115q-23 47 -92 47q-45 0 -71.5 -30t-26.5 -70q0 -18 6 -37l-287 -103q-10 31 -10 88q0 127 174 197q131 53 274 53q119 0 211 -45q143 -68 144 -217v-338q0 -129 41 -129q24 1 57 21l39 -62 q-139 -115 -277 -115q-68 0 -101.5 26t-57.5 95q-121 -121 -256 -121q-119 0 -192 61.5t-73 162.5zM193 971l137 379h410l153 -379h-229l-121 200l-119 -200h-231zM403 236q0 -53 26 -91.5t63 -38.5q38 0 124 78v265q-66 -31 -172 -105q-41 -41 -41 -108z" />
<glyph unicode="&#xe3;" d="M104 199q0 88 64 151q53 53 222 104.5t226 104.5v41q0 84 -14 115q-23 47 -92 47q-45 0 -71.5 -30t-26.5 -70q0 -18 6 -37l-287 -103q-10 31 -10 88q0 127 174 197q131 53 274 53q119 0 211 -45q143 -68 144 -217v-338q0 -129 41 -129q24 1 57 21l39 -62 q-139 -115 -277 -115q-68 0 -101.5 26t-57.5 95q-121 -121 -256 -121q-119 0 -192 61.5t-73 162.5zM123 1016q16 133 68 219q70 113 188 113q66 0 169.5 -56.5t141.5 -56.5q76 0 103 102h174q-31 -328 -254 -327q-66 0 -166 54t-137 54q-91 0 -109 -102h-178zM403 236 q0 -53 26 -91.5t63 -38.5q38 0 124 78v265q-66 -31 -172 -105q-41 -41 -41 -108z" />
<glyph unicode="&#xe4;" d="M104 199q0 88 64 151q53 53 222 104.5t226 104.5v41q0 84 -14 115q-23 47 -92 47q-45 0 -71.5 -30t-26.5 -70q0 -18 6 -37l-287 -103q-10 31 -10 88q0 127 174 197q131 53 274 53q119 0 211 -45q143 -68 144 -217v-338q0 -129 41 -129q24 1 57 21l39 -62 q-139 -115 -277 -115q-68 0 -101.5 26t-57.5 95q-121 -121 -256 -121q-119 0 -192 61.5t-73 162.5zM209 1178q0 55 40 95t95 40t95 -40t40 -95t-39.5 -95.5t-95.5 -40.5q-55 0 -95 40.5t-40 95.5zM403 236q0 -53 26 -91.5t63 -38.5q38 0 124 78v265q-66 -31 -172 -105 q-41 -41 -41 -108zM606 1178q0 55 40 95t96 40q55 0 95 -40t40 -95t-40 -95.5t-95 -40.5t-95.5 40.5t-40.5 95.5z" />
<glyph unicode="&#xe5;" d="M104 199q0 88 64 151q53 53 222 104.5t226 104.5v41q0 84 -14 115q-23 47 -92 47q-45 0 -71.5 -30t-26.5 -70q0 -18 6 -37l-287 -103q-10 31 -10 88q0 127 174 197q131 53 274 53q119 0 211 -45q143 -68 144 -217v-338q0 -129 41 -129q24 1 57 21l39 -62 q-139 -115 -277 -115q-68 0 -101.5 26t-57.5 95q-121 -121 -256 -121q-119 0 -192 61.5t-73 162.5zM340 1171q0 84 60.5 143.5t144.5 59.5t143.5 -59.5t59.5 -143.5t-59.5 -144t-143.5 -60t-144.5 60t-60.5 144zM403 236q0 -53 26 -91.5t63 -38.5q38 0 124 78v265 q-66 -31 -172 -105q-41 -41 -41 -108zM422 1169q0 -51 36 -85.5t87 -34.5t86 34.5t35 85.5t-35 87t-86 36t-87 -35.5t-36 -87.5z" />
<glyph unicode="&#xe6;" horiz-adv-x="1605" d="M102 203q0 92 56.5 148.5t216.5 103.5q168 49 237 106q14 201 -110 201q-94 0 -94 -94q0 -18 8 -43l-285 -101q-10 39 -10 80q0 129 170 201q127 55 266 55q141 0 256 -69q117 70 281 69q184 0 276 -92q70 -70 94 -186q10 -51 19 -66q14 -29 47 -35v-57h-598 q14 -129 88 -213t174 -84q115 0 258 154l61 -56q-203 -250 -493 -250q-236 0 -350 177q-141 -176 -312 -177q-115 0 -185.5 62.5t-70.5 165.5zM401 242q0 -57 25 -94t61 -37q55 -1 125 77v265q-78 -45 -176 -113q-35 -35 -35 -98zM928 502h254q-6 248 -131 248 q-123 0 -123 -248z" />
<glyph unicode="&#xe7;" horiz-adv-x="1071" d="M94 381q0 190 137 326q158 154 424 153q162 0 258.5 -55t96.5 -148q0 -51 -37 -86.5t-90 -35.5q-76 0 -168 107.5t-140 107.5q-68 0 -108.5 -80t-40.5 -209q0 -168 67.5 -262.5t186.5 -94.5q131 1 262 134l74 -48q-172 -215 -459 -215q-211 0 -337 111t-126 295z M254 -385l25 78q39 -20 90 -21q86 0 86 64q0 63 -115 57l139 197h99l-50 -70q119 -35 119 -160q0 -86 -56 -135t-157 -49q-100 0 -180 39z" />
<glyph unicode="&#xe8;" d="M94 389q0 211 133 341t346 130q193 0 281 -88q57 -57 90 -170q29 -100 72 -123v-55h-590q8 -125 82 -211t176 -86q125 -1 258 149l64 -51q-195 -250 -494 -250q-190 0 -304 112t-114 302zM131 1376h414l160 -405h-160zM418 502h252q4 248 -129 248q-123 0 -123 -248z" />
<glyph unicode="&#xe9;" d="M94 389q0 211 133 341t346 130q193 0 281 -88q57 -57 90 -170q29 -100 72 -123v-55h-590q8 -125 82 -211t176 -86q125 -1 258 149l64 -51q-195 -250 -494 -250q-190 0 -304 112t-114 302zM342 969l160 405h414l-414 -405h-160zM418 502h252q4 248 -129 248 q-123 0 -123 -248z" />
<glyph unicode="&#xea;" d="M94 389q0 211 133 341t346 130q193 0 281 -88q57 -57 90 -170q29 -100 72 -123v-55h-590q8 -125 82 -211t176 -86q125 -1 258 149l64 -51q-195 -250 -494 -250q-190 0 -304 112t-114 302zM193 971l137 379h410l153 -379h-229l-121 200l-119 -200h-231zM418 502h252 q4 248 -129 248q-123 0 -123 -248z" />
<glyph unicode="&#xeb;" d="M94 389q0 211 133 341t346 130q193 0 281 -88q57 -57 90 -170q29 -100 72 -123v-55h-590q8 -125 82 -211t176 -86q125 -1 258 149l64 -51q-195 -250 -494 -250q-190 0 -304 112t-114 302zM209 1178q0 55 40 95t95 40t95 -40t40 -95t-39.5 -95.5t-95.5 -40.5 q-55 0 -95 40.5t-40 95.5zM418 502h252q4 248 -129 248q-123 0 -123 -248zM606 1178q0 55 40 95t96 40q55 0 95 -40t40 -95t-40 -95.5t-95 -40.5t-95.5 40.5t-40.5 95.5z" />
<glyph unicode="&#xec;" horiz-adv-x="663" d="M-80 1376h414l160 -405h-160zM41 0v90q78 4 105.5 36t27.5 120v356q0 49 -43 76q-14 8 -90 31v67l362 105h78v-641q0 -82 30 -116t110 -34v-90h-580z" />
<glyph unicode="&#xed;" horiz-adv-x="663" d="M41 0v90q78 4 105.5 36t27.5 120v356q0 49 -43 76q-14 8 -90 31v67l362 105h78v-641q0 -82 30 -116t110 -34v-90h-580zM131 969l160 405h414l-414 -405h-160z" />
<glyph unicode="&#xee;" horiz-adv-x="663" d="M-18 971l137 379h410l153 -379h-229l-121 200l-119 -200h-231zM41 0v90q78 4 105.5 36t27.5 120v356q0 49 -43 76q-14 8 -90 31v67l362 105h78v-641q0 -82 30 -116t110 -34v-90h-580z" />
<glyph unicode="&#xef;" horiz-adv-x="663" d="M-2 1178q0 55 40 95t95 40t95 -40t40 -95t-39.5 -95.5t-95.5 -40.5q-55 0 -95 40.5t-40 95.5zM41 0v90q78 4 105.5 36t27.5 120v356q0 49 -43 76q-14 8 -90 31v67l362 105h78v-641q0 -82 30 -116t110 -34v-90h-580zM395 1178q0 55 40 95t96 40q55 0 95 -40t40 -95 t-40 -95.5t-95 -40.5t-95.5 40.5t-40.5 95.5z" />
<glyph unicode="&#xf0;" horiz-adv-x="1214" d="M86 401q0 184 127 314q143 145 385 145q74 0 166 -35q-29 135 -107 256l-292 -135l-50 90l279 129q-59 76 -152 142l56 67q141 -49 264 -133l293 133l49 -90l-252 -115q152 -137 229 -323q68 -162 68 -328q0 -240 -143 -387q-154 -156 -420 -156q-221 0 -360.5 119 t-139.5 307zM410 539q0 -156 57 -289q72 -164 192 -164q66 0 107 58.5t41 156.5q0 147 -55 281q-68 168 -187 168q-72 0 -113.5 -57.5t-41.5 -153.5z" />
<glyph unicode="&#xf1;" horiz-adv-x="1273" d="M35 0v90q76 0 104.5 34t28.5 116v333q0 63 -25.5 90t-107.5 48v65l368 105h72v-176q264 156 402 155q229 0 229 -287v-311q0 -106 24.5 -139t98.5 -33v-90h-545v90q63 0 89 36t26 136v238q0 184 -117 184q-80 0 -207 -80v-342q0 -100 27.5 -136t105.5 -36v-90h-573z M217 1016q16 133 68 219q70 113 188 113q66 0 169.5 -56.5t141.5 -56.5q76 0 103 102h174q-31 -328 -254 -327q-66 0 -166 54t-137 54q-91 0 -109 -102h-178z" />
<glyph unicode="&#xf2;" horiz-adv-x="1218" d="M86 401q0 186 131 314q150 145 410 145q231 0 368.5 -115.5t137.5 -308.5q0 -203 -153.5 -332t-397.5 -129q-219 0 -357.5 119t-138.5 307zM196 1376h414l160 -405h-160zM410 539q0 -152 59 -287q72 -166 193 -166q66 0 106.5 58.5t40.5 156.5q0 141 -53 277 q-70 172 -189 172q-72 0 -114.5 -57.5t-42.5 -153.5z" />
<glyph unicode="&#xf3;" horiz-adv-x="1218" d="M86 401q0 186 131 314q150 145 410 145q231 0 368.5 -115.5t137.5 -308.5q0 -203 -153.5 -332t-397.5 -129q-219 0 -357.5 119t-138.5 307zM407 969l160 405h414l-414 -405h-160zM410 539q0 -152 59 -287q72 -166 193 -166q66 0 106.5 58.5t40.5 156.5q0 141 -53 277 q-70 172 -189 172q-72 0 -114.5 -57.5t-42.5 -153.5z" />
<glyph unicode="&#xf4;" horiz-adv-x="1218" d="M86 401q0 186 131 314q150 145 410 145q231 0 368.5 -115.5t137.5 -308.5q0 -203 -153.5 -332t-397.5 -129q-219 0 -357.5 119t-138.5 307zM258 971l137 379h410l153 -379h-229l-121 200l-119 -200h-231zM410 539q0 -152 59 -287q72 -166 193 -166q66 0 106.5 58.5 t40.5 156.5q0 141 -53 277q-70 172 -189 172q-72 0 -114.5 -57.5t-42.5 -153.5z" />
<glyph unicode="&#xf5;" horiz-adv-x="1218" d="M86 401q0 186 131 314q150 145 410 145q231 0 368.5 -115.5t137.5 -308.5q0 -203 -153.5 -332t-397.5 -129q-219 0 -357.5 119t-138.5 307zM188 1016q16 133 68 219q70 113 188 113q66 0 169.5 -56.5t141.5 -56.5q76 0 103 102h174q-31 -328 -254 -327q-66 0 -166 54 t-137 54q-91 0 -109 -102h-178zM410 539q0 -152 59 -287q72 -166 193 -166q66 0 106.5 58.5t40.5 156.5q0 141 -53 277q-70 172 -189 172q-72 0 -114.5 -57.5t-42.5 -153.5z" />
<glyph unicode="&#xf6;" horiz-adv-x="1218" d="M86 401q0 186 131 314q150 145 410 145q231 0 368.5 -115.5t137.5 -308.5q0 -203 -153.5 -332t-397.5 -129q-219 0 -357.5 119t-138.5 307zM274 1178q0 55 40 95t95 40t95 -40t40 -95t-39.5 -95.5t-95.5 -40.5q-55 0 -95 40.5t-40 95.5zM410 539q0 -152 59 -287 q72 -166 193 -166q66 0 106.5 58.5t40.5 156.5q0 141 -53 277q-70 172 -189 172q-72 0 -114.5 -57.5t-42.5 -153.5zM671 1178q0 55 40 95t96 40q55 0 95 -40t40 -95t-40 -95.5t-95 -40.5t-95.5 40.5t-40.5 95.5z" />
<glyph unicode="&#xf7;" horiz-adv-x="1368" d="M125 567v215h1116v-215h-1116zM555 246q0 53 38 90t91 37t90 -37t37 -90t-37 -91t-90 -38t-91 38t-38 91zM555 1104q0 53 38 91t91 38t90 -38t37 -91t-37 -90t-90 -37t-91 37t-38 90z" />
<glyph unicode="&#xf8;" horiz-adv-x="1218" d="M86 401q0 186 131 314q150 145 410 145q129 0 258 -47l67 78l78 -64l-57 -65q160 -127 160 -326q0 -203 -154 -332t-397 -129q-143 0 -246 50l-70 -82l-78 67l58 66q-160 119 -160 325zM412 539q0 -115 37 -230l280 324q-63 119 -162 119q-72 0 -113.5 -58.5 t-41.5 -154.5zM494 205q74 -119 168 -119q66 0 105.5 58.5t39.5 156.5q0 129 -35 227z" />
<glyph unicode="&#xf9;" horiz-adv-x="1273" d="M72 721v74l331 65h72v-485q0 -225 129 -225q90 0 197 83v316q0 94 -21.5 118.5t-134.5 51.5v76l391 65h72v-641q0 -104 59 -104q35 0 60 10v-72l-353 -78h-73v148q-272 -147 -402 -148q-231 0 -231 330v336q0 68 -96 80zM225 1376h414l160 -405h-160z" />
<glyph unicode="&#xfa;" horiz-adv-x="1273" d="M72 721v74l331 65h72v-485q0 -225 129 -225q90 0 197 83v316q0 94 -21.5 118.5t-134.5 51.5v76l391 65h72v-641q0 -104 59 -104q35 0 60 10v-72l-353 -78h-73v148q-272 -147 -402 -148q-231 0 -231 330v336q0 68 -96 80zM436 969l160 405h414l-414 -405h-160z" />
<glyph unicode="&#xfb;" horiz-adv-x="1273" d="M72 721v74l331 65h72v-485q0 -225 129 -225q90 0 197 83v316q0 94 -21.5 118.5t-134.5 51.5v76l391 65h72v-641q0 -104 59 -104q35 0 60 10v-72l-353 -78h-73v148q-272 -147 -402 -148q-231 0 -231 330v336q0 68 -96 80zM287 971l137 379h410l153 -379h-229l-121 200 l-119 -200h-231z" />
<glyph unicode="&#xfc;" horiz-adv-x="1273" d="M72 721v74l331 65h72v-485q0 -225 129 -225q90 0 197 83v316q0 94 -21.5 118.5t-134.5 51.5v76l391 65h72v-641q0 -104 59 -104q35 0 60 10v-72l-353 -78h-73v148q-272 -147 -402 -148q-231 0 -231 330v336q0 68 -96 80zM303 1178q0 55 40 95t95 40t95 -40t40 -95 t-39.5 -95.5t-95.5 -40.5q-55 0 -95 40.5t-40 95.5zM700 1178q0 55 40 95t96 40q55 0 95 -40t40 -95t-40 -95.5t-95 -40.5t-95.5 40.5t-40.5 95.5z" />
<glyph unicode="&#xfd;" horiz-adv-x="1107" d="M6 745v91h592v-91q-102 0 -102 -55q0 -27 30 -90l131 -268l109 211q45 88 45 121q0 76 -127 81v91h418v-91q-76 -2 -115 -45t-131 -225l-371 -729q-66 -127 -114.5 -174t-128.5 -47q-68 0 -110 38t-42 97q0 55 39 94t104 43q98 8 111 13q61 20 100 98l48 92l-263 530 q-61 123 -82 150q-53 63 -141 65zM352 969l160 405h414l-414 -405h-160z" />
<glyph unicode="&#xfe;" horiz-adv-x="1236" d="M33 -385q78 -2 108 39q25 33 25 113v1282q0 80 -19.5 102.5t-113.5 50.5v68l364 104h76v-669q168 156 332 155q156 0 256 -110.5t100 -284.5q0 -182 -112 -320q-141 -170 -402 -170q-76 0 -162 23l-12 2v-197q0 -127 36 -159.5t167 -28.5v-90h-643v90zM473 182 q92 -104 193 -104q80 0 126 70.5t46 195.5q0 150 -54.5 242t-144.5 92q-82 0 -166 -74v-422z" />
<glyph unicode="&#xff;" horiz-adv-x="1107" d="M6 745v91h592v-91q-102 0 -102 -55q0 -27 30 -90l131 -268l109 211q45 88 45 121q0 76 -127 81v91h418v-91q-76 -2 -115 -45t-131 -225l-371 -729q-66 -127 -114.5 -174t-128.5 -47q-68 0 -110 38t-42 97q0 55 39 94t104 43q98 8 111 13q61 20 100 98l48 92l-263 530 q-61 123 -82 150q-53 63 -141 65zM219 1178q0 55 40 95t95 40t95 -40t40 -95t-39.5 -95.5t-95.5 -40.5q-55 0 -95 40.5t-40 95.5zM616 1178q0 55 40 95t96 40q55 0 95 -40t40 -95t-40 -95.5t-95 -40.5t-95.5 40.5t-40.5 95.5z" />
<glyph unicode="&#x152;" horiz-adv-x="2269" d="M98 641q0 244 164 424q201 221 567 221q76 0 227.5 -6t227.5 -6h836l18 -307h-96q-12 121 -49 150.5t-166 29.5h-318v-447h248q109 0 150 37q35 33 35 115h96v-424h-96q0 82 -39 113.5t-148 31.5h-246v-446h301q154 0 209.5 42t89.5 177h97l-27 -346h-903q-72 0 -172 -2 q-41 0 -154 -6q-96 -4 -153 -4q-360 0 -549 233q-150 182 -150 420zM463 686q0 -256 132 -428t329 -172q241 0 241 317v496q0 152 -51 215q-57 74 -205 74q-207 0 -326.5 -134t-119.5 -368z" />
<glyph unicode="&#x153;" horiz-adv-x="1716" d="M82 414q0 188 144.5 317t357.5 129q168 0 293 -100q123 100 319 100q188 0 285 -96q47 -47 84 -166q31 -104 69 -119v-55h-592q14 -133 85 -215t171 -82q128 0 263 152l65 -52q-195 -252 -491 -252q-176 0 -271 82q-129 -82 -289 -82q-215 0 -354 124t-139 315zM406 580 q0 -150 55 -306q68 -188 172 -188q49 0 79.5 52t30.5 134q0 135 -51 283q-68 195 -178 195q-49 0 -78.5 -47.5t-29.5 -122.5zM1034 502h256q0 248 -133 248t-123 -248z" />
<glyph unicode="&#x178;" horiz-adv-x="1605" d="M23 1178v96h737v-96q-139 0 -139 -52q0 -23 32 -67l287 -389l207 323q53 84 53 119q0 66 -135 66v96h518v-96q-102 0 -151.5 -35t-133.5 -164l-301 -463v-225q0 -119 37 -157t166 -38v-96h-751v96q129 0 169 43q35 37 35 154v211l-377 510q-76 102 -121.5 133t-131.5 31z M469 1600q0 55 40 95t95 40t95 -40t40 -95t-39.5 -95.5t-95.5 -40.5q-55 0 -95 40.5t-40 95.5zM866 1600q0 55 40 95t96 40q55 0 95 -40t40 -95t-40 -95.5t-95 -40.5t-95.5 40.5t-40.5 95.5z" />
<glyph unicode="&#x2c6;" horiz-adv-x="681" d="M-10 971l137 379h410l153 -379h-229l-121 200l-119 -200h-231z" />
<glyph unicode="&#x2dc;" horiz-adv-x="681" d="M-80 1016q16 133 68 219q70 113 188 113q66 0 169.5 -56.5t141.5 -56.5q76 0 103 102h174q-31 -328 -254 -327q-66 0 -166 54t-137 54q-91 0 -109 -102h-178z" />
<glyph unicode="&#x2000;" horiz-adv-x="899" />
<glyph unicode="&#x2001;" horiz-adv-x="1798" />
<glyph unicode="&#x2002;" horiz-adv-x="899" />
<glyph unicode="&#x2003;" horiz-adv-x="1798" />
<glyph unicode="&#x2004;" horiz-adv-x="599" />
<glyph unicode="&#x2005;" horiz-adv-x="449" />
<glyph unicode="&#x2006;" horiz-adv-x="299" />
<glyph unicode="&#x2007;" horiz-adv-x="299" />
<glyph unicode="&#x2008;" horiz-adv-x="224" />
<glyph unicode="&#x2009;" horiz-adv-x="359" />
<glyph unicode="&#x200a;" horiz-adv-x="99" />
<glyph unicode="&#x2010;" horiz-adv-x="849" d="M66 291v241h718v-241h-718z" />
<glyph unicode="&#x2011;" horiz-adv-x="849" d="M66 291v241h718v-241h-718z" />
<glyph unicode="&#x2012;" horiz-adv-x="849" d="M66 291v241h718v-241h-718z" />
<glyph unicode="&#x2013;" horiz-adv-x="1024" d="M-12 387v250h1048v-250h-1048z" />
<glyph unicode="&#x2014;" horiz-adv-x="2048" d="M-12 387v250h2072v-250h-2072z" />
<glyph unicode="&#x2018;" horiz-adv-x="702" d="M119 1044q0 125 80 209q102 111 317 121l19 -110q-227 -27 -228 -131q0 -27 49 -27q199 0 199 -152q0 -72 -53 -117.5t-137 -45.5q-109 0 -177.5 70.5t-68.5 182.5z" />
<glyph unicode="&#x2019;" horiz-adv-x="702" d="M147 1210q0 72 53.5 118t137.5 46q109 0 177.5 -70.5t68.5 -183.5q0 -125 -80 -209q-103 -110 -318 -120l-18 110q227 27 227 131q0 27 -49 27q-199 0 -199 151z" />
<glyph unicode="&#x201a;" horiz-adv-x="702" d="M147 119q0 72 53.5 118t137.5 46q109 0 177.5 -71t68.5 -183q0 -125 -80 -209q-103 -111 -318 -121l-18 111q227 27 227 131q0 27 -49 26q-199 0 -199 152z" />
<glyph unicode="&#x201c;" horiz-adv-x="1310" d="M139 1044q0 125 80 209q103 111 318 121l18 -110q-227 -27 -227 -131q0 -27 49 -27q199 0 198 -152q0 -72 -53 -117.5t-137 -45.5q-109 0 -177.5 70.5t-68.5 182.5zM737 1044q0 125 80 209q103 111 318 121l18 -110q-227 -27 -227 -131q0 -27 49 -27q199 0 199 -152 q0 -72 -53.5 -117.5t-137.5 -45.5q-109 0 -177.5 70.5t-68.5 182.5z" />
<glyph unicode="&#x201d;" horiz-adv-x="1310" d="M137 1210q0 72 53.5 118t137.5 46q109 0 177 -70.5t68 -183.5q0 -125 -79 -209q-103 -110 -318 -120l-18 110q227 27 227 131q0 27 -49 27q-199 0 -199 151zM735 1210q0 72 53.5 118t137.5 46q109 0 177 -70.5t68 -183.5q0 -125 -79 -209q-103 -110 -318 -120l-18 110 q227 27 227 131q0 27 -49 27q-199 0 -199 151z" />
<glyph unicode="&#x201e;" horiz-adv-x="1310" d="M137 152q0 72 53.5 117.5t137.5 45.5q109 0 177 -70.5t68 -183.5q0 -125 -79 -208q-103 -111 -318 -121l-18 110q227 27 227 131q0 27 -49 27q-199 0 -199 152zM735 152q0 72 53.5 117.5t137.5 45.5q109 0 177 -70.5t68 -183.5q0 -125 -79 -208q-103 -111 -318 -121 l-18 110q227 27 227 131q0 27 -49 27q-199 0 -199 152z" />
<glyph unicode="&#x2022;" horiz-adv-x="724" d="M115 586q0 102 72.5 173.5t174.5 71.5t174 -71.5t72 -173.5t-71.5 -175t-174.5 -73q-102 0 -174.5 73t-72.5 175z" />
<glyph unicode="&#x2026;" horiz-adv-x="1771" d="M98 147q0 76 55.5 125.5t141.5 49.5q84 0 140.5 -49.5t56.5 -125.5t-55.5 -124t-141.5 -48t-141.5 48.5t-55.5 123.5zM690 147q0 76 55.5 125.5t141.5 49.5q84 0 140 -49.5t56 -125.5t-56 -124t-140 -48q-88 0 -142.5 48.5t-54.5 123.5zM1282 147q0 76 55.5 125.5 t141.5 49.5t141 -49.5t55 -125.5t-55 -124t-141 -48t-141.5 48.5t-55.5 123.5z" />
<glyph unicode="&#x202f;" horiz-adv-x="359" />
<glyph unicode="&#x2039;" horiz-adv-x="571" d="M39 457l375 379h80l-152 -379l152 -379h-80z" />
<glyph unicode="&#x203a;" horiz-adv-x="571" d="M78 78l151 379l-151 379h80l374 -379l-374 -379h-80z" />
<glyph unicode="&#x205f;" horiz-adv-x="449" />
<glyph unicode="&#x2122;" horiz-adv-x="2154" d="M27 1149v225h776v-225h-35q-6 96 -49 135t-144 39h-36v-588q0 -106 39 -125q18 -8 61 -8v-43h-453v43q72 0 90 29q12 23 13 104v588h-33q-96 0 -141 -40t-56 -134h-32zM913 559v43q76 0 93.5 23.5t17.5 109.5v469q0 76 -20.5 103.5t-90.5 27.5v39h369l231 -495l228 495 h348v-39q-72 2 -90 -32q-12 -20 -12 -99v-502q0 -98 102 -100v-43h-461v43q78 0 98 31q14 23 15 102v502h-4l-314 -678h-24l-316 678h-4v-537q0 -55 25.5 -76.5t89.5 -21.5v-43h-281z" />
<glyph unicode="&#xe000;" horiz-adv-x="839" d="M0 0v840h840v-840h-840z" />
</font>
</defs>
</svg>
